<?xml version="1.0" encoding="utf-8"?>
<!-- Generator: Adobe Illustrator 13.0.1, SVG Export Plug-In . SVG Version: 6.00 Build 14948)  -->
<!DOCTYPE svg PUBLIC "-//W3C//DTD SVG 1.1//EN" "http://www.w3.org/Graphics/SVG/1.1/DTD/svg11.dtd">
<svg version="1.1"  xmlns="http://www.w3.org/2000/svg" xmlns:xlink="http://www.w3.org/1999/xlink" x="0px" y="0px"
	 width="120px" height="119.999px" viewBox="0 0 120 119.999" enable-background="new 0 0 120 119.999" xml:space="preserve">
<path fill="#000" d="M120,59.998c0,33.139-26.863,60.001-60,60.001S0,93.137,0,59.998C0,26.862,26.863,0,60,0
	S120,26.862,120,59.998"/>
<g>
	<g>
		<path fill-rule="evenodd" clip-rule="evenodd" fill="#FFFFFF" d="M77.566,78.262H42.414c-1.113,0-2.012,0.9-2.012,2.012v3.812
			c0,1.111,0.899,2.011,2.012,2.011h35.152c1.112,0,2.013-0.9,2.013-2.011v-3.812C79.579,79.162,78.678,78.262,77.566,78.262
			 M80,52.391H68.688V33.908h-18.4v18.483H40l20,22.257L80,52.391z"/>
	</g>
</g>
</svg>
