<svg version="1.1" id="Layer_1" xmlns="http://www.w3.org/2000/svg" xmlns:xlink="http://www.w3.org/1999/xlink" x="0px" y="0px"
	 width="600px" height="600px" viewBox="0 0 600 600" enable-background="new 0 0 600 600" xml:space="preserve">
<g>
	<defs>
		<rect id="icon-email-circle_1" y="-0.001" width="599.998" height="599.999"/>
	</defs>
	<clipPath id="icon-email-circle_2">
		<use xlink:href="#icon-email-circle_1"  overflow="visible"/>
	</clipPath>
	<path class="primary" clip-path="url(#icon-email-circle_2)" fill="#000" d="M299.999,599.998c165.686,0,300.012-134.326,300.012-300.012
		C600.011,134.302,465.685,0,299.999,0C134.314,0-0.013,134.302-0.013,299.986C-0.013,465.672,134.314,599.998,299.999,599.998"/>
	<path class="secondary" clip-path="url(#icon-email-circle_2)" fill="#FFFFFF" d="M172.233,215.871c-3.235,5.113-5.191,11.139-5.191,17.661v132.945
		c0,5.818,1.643,11.244,4.278,15.992l83.951-93.969L172.233,215.871z M332.205,299.457l-26.74,23.427
		c-1.565,1.356-3.522,2.035-5.453,2.035c-1.956,0-3.913-0.679-5.478-2.035l-26.766-23.427L182.747,394.6
		c5.113,3.209,11.087,5.113,17.531,5.113h199.443c6.444,0,12.418-1.904,17.531-5.113L332.205,299.457z M300.012,305.588
		L415.556,204.47c-4.748-2.608-10.07-4.2-15.835-4.2H200.278c-5.766,0-11.114,1.592-15.835,4.2L300.012,305.588z M432.957,366.477
		c0,5.818-1.645,11.244-4.278,15.992l-83.952-93.943l83.038-72.655c3.235,5.113,5.192,11.139,5.192,17.661V366.477z"/>
</g>
</svg>
