<?xml version="1.0" encoding="UTF-8" standalone="no"?>
<!-- The icon can be used freely in both personal and commercial projects with no attribution required, but always appreciated.
You may NOT sub-license, resell, rent, redistribute or otherwise transfer the icon without express written permission from iconmonstr.com -->

<svg
   xmlns:dc="http://purl.org/dc/elements/1.1/"
   xmlns:cc="http://creativecommons.org/ns#"
   xmlns:rdf="http://www.w3.org/1999/02/22-rdf-syntax-ns#"
   xmlns:svg="http://www.w3.org/2000/svg"
   xmlns="http://www.w3.org/2000/svg"
   xmlns:sodipodi="http://sodipodi.sourceforge.net/DTD/sodipodi-0.dtd"
   xmlns:inkscape="http://www.inkscape.org/namespaces/inkscape"
   version="1.1"
   x="0px"
   y="0px"
   width="412"
   height="412"
   viewBox="0 0 412 412"
   enable-background="new 0 0 512 512"
   xml:space="preserve"
   id="svg3336"
   inkscape:version="0.91 r13725"
   sodipodi:docname="facebook.svg"><metadata
     id="metadata3343"><rdf:RDF><cc:Work
         rdf:about=""><dc:format>image/svg+xml</dc:format><dc:type
           rdf:resource="http://purl.org/dc/dcmitype/StillImage" /><dc:title></dc:title></cc:Work></rdf:RDF></metadata><defs
     id="defs3341" /><sodipodi:namedview
     pagecolor="#ffffff"
     bordercolor="#666666"
     borderopacity="1"
     objecttolerance="10"
     gridtolerance="10"
     guidetolerance="10"
     inkscape:pageopacity="0"
     inkscape:pageshadow="2"
     inkscape:window-width="1600"
     inkscape:window-height="848"
     id="namedview3339"
     showgrid="false"
     fit-margin-top="0"
     fit-margin-left="0"
     fit-margin-right="0"
     fit-margin-bottom="0"
     inkscape:zoom="1.3300781"
     inkscape:cx="144.30841"
     inkscape:cy="150.41012"
     inkscape:window-x="-8"
     inkscape:window-y="-8"
     inkscape:window-maximized="1"
     inkscape:current-layer="svg3336" /><path
     id="facebook-circle-icon"
     d="M 206,0 C 92.229,0 0,92.229 0,206.00001 c 0,113.771 92.229,206 206,206 113.771,0 206,-92.229 206,-206 C 412,92.229 319.771,0 206,0 Z"
     inkscape:connector-curvature="0"
     style="fill:#000000;stroke:none"
     sodipodi:nodetypes="sssss" /><path
     id="facebook-circle-icon-5"
     d="m 266.97094,120.43722 -28.789,0 c -10.162,0 -12.28,4.163 -12.28,14.678 l 0,25.404 41.069,0 -3.951,44.596 -37.118,0 0,133.227 -53.2,0 0,-132.662 -27.666,0 0,-45.16 27.666,0 0,-35.565 c 0,-33.379005 17.849,-50.807005 57.437,-50.807005 l 36.833,0 0,46.289005 z"
     inkscape:connector-curvature="0"
     style="fill:#ffffff;stroke:none"
     sodipodi:nodetypes="cssccccccccccssccc" /></svg>