<?xml version="1.0" encoding="UTF-8" standalone="no"?>
<svg
   xmlns:dc="http://purl.org/dc/elements/1.1/"
   xmlns:cc="http://creativecommons.org/ns#"
   xmlns:rdf="http://www.w3.org/1999/02/22-rdf-syntax-ns#"
   xmlns:svg="http://www.w3.org/2000/svg"
   xmlns="http://www.w3.org/2000/svg"
   xmlns:sodipodi="http://sodipodi.sourceforge.net/DTD/sodipodi-0.dtd"
   xmlns:inkscape="http://www.inkscape.org/namespaces/inkscape"
   enable-background="new 0 0 512 512"
   height="512px"
   id="Layer_1"
   version="1.1"
   viewBox="0 0 512 512"
   width="512px"
   xml:space="preserve"
   inkscape:version="0.91 r13725"
   sodipodi:docname="linkedin.svg"><metadata
     id="metadata3352"><rdf:RDF><cc:Work
         rdf:about=""><dc:format>image/svg+xml</dc:format><dc:type
           rdf:resource="http://purl.org/dc/dcmitype/StillImage" /></cc:Work></rdf:RDF></metadata><defs
     id="defs3350" /><sodipodi:namedview
     pagecolor="#ffffff"
     bordercolor="#666666"
     borderopacity="1"
     objecttolerance="10"
     gridtolerance="10"
     guidetolerance="10"
     inkscape:pageopacity="0"
     inkscape:pageshadow="2"
     inkscape:window-width="1600"
     inkscape:window-height="848"
     id="namedview3348"
     showgrid="false"
     inkscape:zoom="0.4609375"
     inkscape:cx="256"
     inkscape:cy="256"
     inkscape:window-x="-8"
     inkscape:window-y="-8"
     inkscape:window-maximized="1"
     inkscape:current-layer="g3342" /><g
     id="g3342"><path
       clip-rule="evenodd"
       d="M256.23,512C396.81,512,512,396.81,512,256.23   C512,115.184,396.81,0,256.23,0C115.184,0,0,115.184,0,256.23C0,396.81,115.184,512,256.23,512L256.23,512z"
       fill="#000"
       fill-rule="evenodd"
       id="path3344" /><path
       clip-rule="evenodd"
       d="M175.958,399.98h-48.073V175.958h48.073V399.98z M329.238,175.958   c42.621,0,70.742,24.935,70.742,80.272v143.75h-48.072V272.088c0-30.832-11.327-48.064-37.637-48.064s-58.041,22.224-58.041,48.064   V399.98H208.15V175.958h48.081v32.192C272.088,191.823,295.68,175.958,329.238,175.958L329.238,175.958z M151.922,79.812   c17.686,0,32.199,14.514,32.199,32.2s-14.514,31.747-32.199,31.747c-17.686,0-32.2-14.061-32.2-31.747   S134.236,79.812,151.922,79.812L151.922,79.812z"
       fill="#FFF"
       fill-rule="evenodd"
       id="path3346"
       style="fill:#ffffff" /></g></svg>