<svg xmlns="http://www.w3.org/2000/svg" width="89.577202mm" height="89.011154mm" viewBox="0 0 55.268951 54.919701" id="svg2" clip-rule="evenodd" fill-rule="evenodd" image-rendering="optimizeQuality" shape-rendering="geometricPrecision" text-rendering="geometricPrecision">
  <defs id="defs4">
    <style id="style6">
<![CDATA[
    .fil0 {fill:#FFFFFF}
    .fil1 {fill:#1B1C1F;fill-rule:nonzero}
   ]]>
    </style>
  </defs>
  <ellipse id="path4147" ry="27.459845" rx="27.63447" cy="27.45985" cx="27.634476" fill-rule="nonzero" stroke="#ffca08" stroke-width="0"/>
  <g id="layer2">
    <g id="Layer_x0020_1">
      <g id="_152222920" fill="#fff">
        <path id="_152222248" class="fil0" d="M22.5226 20.1682c-5.4465 3.1446 2.8637 18.724 8.8237 15.283l5.526 9.5713c-2.5147 1.4518-4.6432 2.367-7.5586.7005-8.0946-4.6273-17.0046-20.0543-16.751-29.2558.088-3.196 1.971-4.4482 4.434-5.8702l5.526 9.5712z"/>
        <path id="_150519168" class="fil0" d="M24.8073 19.9086c-.5885.3398-1.3458.137-1.6856-.4515l-5.2095-9.023c-.34-.5887-.137-1.346.4515-1.6858l2.738-1.5807c.5885-.34 1.346-.137 1.6857.4517l5.2095 9.023c.3397.5886.137 1.346-.4516 1.6856l-2.738 1.5808z"/>
        <path id="_226148072" class="fil0" d="M39.0392 44.559c-.5885.34-1.3458.137-1.6856-.4515l-5.2095-9.0232c-.3398-.5885-.137-1.3458.4516-1.6856l2.738-1.5808c.5885-.34 1.346-.137 1.6857.4516l5.2095 9.023c.3398.5887.137 1.346-.4515 1.6857l-2.738 1.5808z"/>
      </g>
    </g>
  </g>
</svg>
