<?xml version="1.0" encoding="utf-8"?>
<svg version="1.1" baseProfile="full"  width="99" height="99" viewBox="0 0 99 99"
		 xmlns="http://www.w3.org/2000/svg" xmlns:xlink="http://www.w3.org/1999/xlink" xmlns:ev="http://www.w3.org/2001/xml-events">
<desc></desc>
<rect width="99" height="99" fill="transparent" cx="0" cy="0" />
<defs>
<rect id="p" width="3" height="3" />
</defs>
<g fill="#000000">
<use x="6" y="6" xlink:href="#p" />
<use x="6" y="9" xlink:href="#p" />
<use x="6" y="12" xlink:href="#p" />
<use x="6" y="15" xlink:href="#p" />
<use x="6" y="18" xlink:href="#p" />
<use x="6" y="21" xlink:href="#p" />
<use x="6" y="24" xlink:href="#p" />
<use x="6" y="30" xlink:href="#p" />
<use x="6" y="39" xlink:href="#p" />
<use x="6" y="45" xlink:href="#p" />
<use x="6" y="57" xlink:href="#p" />
<use x="6" y="63" xlink:href="#p" />
<use x="6" y="66" xlink:href="#p" />
<use x="6" y="72" xlink:href="#p" />
<use x="6" y="75" xlink:href="#p" />
<use x="6" y="78" xlink:href="#p" />
<use x="6" y="81" xlink:href="#p" />
<use x="6" y="84" xlink:href="#p" />
<use x="6" y="87" xlink:href="#p" />
<use x="6" y="90" xlink:href="#p" />
<use x="9" y="6" xlink:href="#p" />
<use x="9" y="24" xlink:href="#p" />
<use x="9" y="30" xlink:href="#p" />
<use x="9" y="36" xlink:href="#p" />
<use x="9" y="39" xlink:href="#p" />
<use x="9" y="42" xlink:href="#p" />
<use x="9" y="45" xlink:href="#p" />
<use x="9" y="48" xlink:href="#p" />
<use x="9" y="54" xlink:href="#p" />
<use x="9" y="57" xlink:href="#p" />
<use x="9" y="60" xlink:href="#p" />
<use x="9" y="63" xlink:href="#p" />
<use x="9" y="72" xlink:href="#p" />
<use x="9" y="90" xlink:href="#p" />
<use x="12" y="6" xlink:href="#p" />
<use x="12" y="12" xlink:href="#p" />
<use x="12" y="15" xlink:href="#p" />
<use x="12" y="18" xlink:href="#p" />
<use x="12" y="24" xlink:href="#p" />
<use x="12" y="30" xlink:href="#p" />
<use x="12" y="39" xlink:href="#p" />
<use x="12" y="42" xlink:href="#p" />
<use x="12" y="48" xlink:href="#p" />
<use x="12" y="51" xlink:href="#p" />
<use x="12" y="60" xlink:href="#p" />
<use x="12" y="66" xlink:href="#p" />
<use x="12" y="72" xlink:href="#p" />
<use x="12" y="78" xlink:href="#p" />
<use x="12" y="81" xlink:href="#p" />
<use x="12" y="84" xlink:href="#p" />
<use x="12" y="90" xlink:href="#p" />
<use x="15" y="6" xlink:href="#p" />
<use x="15" y="12" xlink:href="#p" />
<use x="15" y="15" xlink:href="#p" />
<use x="15" y="18" xlink:href="#p" />
<use x="15" y="24" xlink:href="#p" />
<use x="15" y="30" xlink:href="#p" />
<use x="15" y="45" xlink:href="#p" />
<use x="15" y="48" xlink:href="#p" />
<use x="15" y="51" xlink:href="#p" />
<use x="15" y="54" xlink:href="#p" />
<use x="15" y="60" xlink:href="#p" />
<use x="15" y="72" xlink:href="#p" />
<use x="15" y="78" xlink:href="#p" />
<use x="15" y="81" xlink:href="#p" />
<use x="15" y="84" xlink:href="#p" />
<use x="15" y="90" xlink:href="#p" />
<use x="18" y="6" xlink:href="#p" />
<use x="18" y="12" xlink:href="#p" />
<use x="18" y="15" xlink:href="#p" />
<use x="18" y="18" xlink:href="#p" />
<use x="18" y="24" xlink:href="#p" />
<use x="18" y="33" xlink:href="#p" />
<use x="18" y="36" xlink:href="#p" />
<use x="18" y="39" xlink:href="#p" />
<use x="18" y="45" xlink:href="#p" />
<use x="18" y="51" xlink:href="#p" />
<use x="18" y="72" xlink:href="#p" />
<use x="18" y="78" xlink:href="#p" />
<use x="18" y="81" xlink:href="#p" />
<use x="18" y="84" xlink:href="#p" />
<use x="18" y="90" xlink:href="#p" />
<use x="21" y="6" xlink:href="#p" />
<use x="21" y="24" xlink:href="#p" />
<use x="21" y="36" xlink:href="#p" />
<use x="21" y="45" xlink:href="#p" />
<use x="21" y="51" xlink:href="#p" />
<use x="21" y="57" xlink:href="#p" />
<use x="21" y="72" xlink:href="#p" />
<use x="21" y="90" xlink:href="#p" />
<use x="24" y="6" xlink:href="#p" />
<use x="24" y="9" xlink:href="#p" />
<use x="24" y="12" xlink:href="#p" />
<use x="24" y="15" xlink:href="#p" />
<use x="24" y="18" xlink:href="#p" />
<use x="24" y="21" xlink:href="#p" />
<use x="24" y="24" xlink:href="#p" />
<use x="24" y="30" xlink:href="#p" />
<use x="24" y="36" xlink:href="#p" />
<use x="24" y="42" xlink:href="#p" />
<use x="24" y="48" xlink:href="#p" />
<use x="24" y="54" xlink:href="#p" />
<use x="24" y="60" xlink:href="#p" />
<use x="24" y="66" xlink:href="#p" />
<use x="24" y="72" xlink:href="#p" />
<use x="24" y="75" xlink:href="#p" />
<use x="24" y="78" xlink:href="#p" />
<use x="24" y="81" xlink:href="#p" />
<use x="24" y="84" xlink:href="#p" />
<use x="24" y="87" xlink:href="#p" />
<use x="24" y="90" xlink:href="#p" />
<use x="27" y="33" xlink:href="#p" />
<use x="27" y="36" xlink:href="#p" />
<use x="27" y="42" xlink:href="#p" />
<use x="27" y="45" xlink:href="#p" />
<use x="27" y="51" xlink:href="#p" />
<use x="27" y="57" xlink:href="#p" />
<use x="27" y="63" xlink:href="#p" />
<use x="30" y="6" xlink:href="#p" />
<use x="30" y="12" xlink:href="#p" />
<use x="30" y="15" xlink:href="#p" />
<use x="30" y="18" xlink:href="#p" />
<use x="30" y="24" xlink:href="#p" />
<use x="30" y="30" xlink:href="#p" />
<use x="30" y="33" xlink:href="#p" />
<use x="30" y="39" xlink:href="#p" />
<use x="30" y="42" xlink:href="#p" />
<use x="30" y="45" xlink:href="#p" />
<use x="30" y="48" xlink:href="#p" />
<use x="30" y="51" xlink:href="#p" />
<use x="30" y="54" xlink:href="#p" />
<use x="30" y="57" xlink:href="#p" />
<use x="30" y="63" xlink:href="#p" />
<use x="30" y="69" xlink:href="#p" />
<use x="30" y="81" xlink:href="#p" />
<use x="30" y="84" xlink:href="#p" />
<use x="30" y="87" xlink:href="#p" />
<use x="30" y="90" xlink:href="#p" />
<use x="33" y="6" xlink:href="#p" />
<use x="33" y="15" xlink:href="#p" />
<use x="33" y="18" xlink:href="#p" />
<use x="33" y="21" xlink:href="#p" />
<use x="33" y="27" xlink:href="#p" />
<use x="33" y="33" xlink:href="#p" />
<use x="33" y="42" xlink:href="#p" />
<use x="33" y="45" xlink:href="#p" />
<use x="33" y="48" xlink:href="#p" />
<use x="33" y="54" xlink:href="#p" />
<use x="33" y="60" xlink:href="#p" />
<use x="33" y="66" xlink:href="#p" />
<use x="33" y="75" xlink:href="#p" />
<use x="33" y="78" xlink:href="#p" />
<use x="33" y="87" xlink:href="#p" />
<use x="33" y="90" xlink:href="#p" />
<use x="36" y="18" xlink:href="#p" />
<use x="36" y="24" xlink:href="#p" />
<use x="36" y="45" xlink:href="#p" />
<use x="36" y="51" xlink:href="#p" />
<use x="36" y="54" xlink:href="#p" />
<use x="36" y="57" xlink:href="#p" />
<use x="36" y="72" xlink:href="#p" />
<use x="36" y="75" xlink:href="#p" />
<use x="36" y="78" xlink:href="#p" />
<use x="36" y="90" xlink:href="#p" />
<use x="39" y="12" xlink:href="#p" />
<use x="39" y="15" xlink:href="#p" />
<use x="39" y="18" xlink:href="#p" />
<use x="39" y="27" xlink:href="#p" />
<use x="39" y="39" xlink:href="#p" />
<use x="39" y="42" xlink:href="#p" />
<use x="39" y="45" xlink:href="#p" />
<use x="39" y="54" xlink:href="#p" />
<use x="39" y="60" xlink:href="#p" />
<use x="39" y="66" xlink:href="#p" />
<use x="39" y="72" xlink:href="#p" />
<use x="39" y="81" xlink:href="#p" />
<use x="39" y="84" xlink:href="#p" />
<use x="39" y="87" xlink:href="#p" />
<use x="42" y="12" xlink:href="#p" />
<use x="42" y="21" xlink:href="#p" />
<use x="42" y="24" xlink:href="#p" />
<use x="42" y="39" xlink:href="#p" />
<use x="42" y="48" xlink:href="#p" />
<use x="42" y="51" xlink:href="#p" />
<use x="42" y="57" xlink:href="#p" />
<use x="42" y="60" xlink:href="#p" />
<use x="42" y="63" xlink:href="#p" />
<use x="42" y="66" xlink:href="#p" />
<use x="42" y="69" xlink:href="#p" />
<use x="42" y="72" xlink:href="#p" />
<use x="42" y="78" xlink:href="#p" />
<use x="42" y="81" xlink:href="#p" />
<use x="42" y="90" xlink:href="#p" />
<use x="45" y="12" xlink:href="#p" />
<use x="45" y="18" xlink:href="#p" />
<use x="45" y="27" xlink:href="#p" />
<use x="45" y="30" xlink:href="#p" />
<use x="45" y="39" xlink:href="#p" />
<use x="45" y="45" xlink:href="#p" />
<use x="45" y="51" xlink:href="#p" />
<use x="45" y="57" xlink:href="#p" />
<use x="45" y="66" xlink:href="#p" />
<use x="45" y="69" xlink:href="#p" />
<use x="45" y="72" xlink:href="#p" />
<use x="45" y="84" xlink:href="#p" />
<use x="48" y="6" xlink:href="#p" />
<use x="48" y="18" xlink:href="#p" />
<use x="48" y="21" xlink:href="#p" />
<use x="48" y="24" xlink:href="#p" />
<use x="48" y="27" xlink:href="#p" />
<use x="48" y="30" xlink:href="#p" />
<use x="48" y="36" xlink:href="#p" />
<use x="48" y="39" xlink:href="#p" />
<use x="48" y="48" xlink:href="#p" />
<use x="48" y="69" xlink:href="#p" />
<use x="48" y="78" xlink:href="#p" />
<use x="48" y="81" xlink:href="#p" />
<use x="48" y="87" xlink:href="#p" />
<use x="48" y="90" xlink:href="#p" />
<use x="51" y="12" xlink:href="#p" />
<use x="51" y="15" xlink:href="#p" />
<use x="51" y="18" xlink:href="#p" />
<use x="51" y="42" xlink:href="#p" />
<use x="51" y="45" xlink:href="#p" />
<use x="51" y="54" xlink:href="#p" />
<use x="51" y="57" xlink:href="#p" />
<use x="51" y="60" xlink:href="#p" />
<use x="51" y="63" xlink:href="#p" />
<use x="51" y="66" xlink:href="#p" />
<use x="51" y="75" xlink:href="#p" />
<use x="51" y="78" xlink:href="#p" />
<use x="51" y="81" xlink:href="#p" />
<use x="51" y="90" xlink:href="#p" />
<use x="54" y="6" xlink:href="#p" />
<use x="54" y="9" xlink:href="#p" />
<use x="54" y="12" xlink:href="#p" />
<use x="54" y="18" xlink:href="#p" />
<use x="54" y="24" xlink:href="#p" />
<use x="54" y="30" xlink:href="#p" />
<use x="54" y="33" xlink:href="#p" />
<use x="54" y="42" xlink:href="#p" />
<use x="54" y="45" xlink:href="#p" />
<use x="54" y="48" xlink:href="#p" />
<use x="54" y="51" xlink:href="#p" />
<use x="54" y="60" xlink:href="#p" />
<use x="54" y="63" xlink:href="#p" />
<use x="54" y="66" xlink:href="#p" />
<use x="54" y="69" xlink:href="#p" />
<use x="54" y="72" xlink:href="#p" />
<use x="54" y="75" xlink:href="#p" />
<use x="54" y="81" xlink:href="#p" />
<use x="54" y="87" xlink:href="#p" />
<use x="57" y="15" xlink:href="#p" />
<use x="57" y="18" xlink:href="#p" />
<use x="57" y="27" xlink:href="#p" />
<use x="57" y="30" xlink:href="#p" />
<use x="57" y="33" xlink:href="#p" />
<use x="57" y="36" xlink:href="#p" />
<use x="57" y="42" xlink:href="#p" />
<use x="57" y="48" xlink:href="#p" />
<use x="57" y="60" xlink:href="#p" />
<use x="57" y="63" xlink:href="#p" />
<use x="57" y="66" xlink:href="#p" />
<use x="57" y="69" xlink:href="#p" />
<use x="57" y="78" xlink:href="#p" />
<use x="60" y="24" xlink:href="#p" />
<use x="60" y="27" xlink:href="#p" />
<use x="60" y="30" xlink:href="#p" />
<use x="60" y="39" xlink:href="#p" />
<use x="60" y="42" xlink:href="#p" />
<use x="60" y="48" xlink:href="#p" />
<use x="60" y="51" xlink:href="#p" />
<use x="60" y="54" xlink:href="#p" />
<use x="60" y="60" xlink:href="#p" />
<use x="60" y="63" xlink:href="#p" />
<use x="60" y="66" xlink:href="#p" />
<use x="60" y="69" xlink:href="#p" />
<use x="60" y="72" xlink:href="#p" />
<use x="60" y="75" xlink:href="#p" />
<use x="60" y="84" xlink:href="#p" />
<use x="63" y="6" xlink:href="#p" />
<use x="63" y="12" xlink:href="#p" />
<use x="63" y="15" xlink:href="#p" />
<use x="63" y="18" xlink:href="#p" />
<use x="63" y="21" xlink:href="#p" />
<use x="63" y="30" xlink:href="#p" />
<use x="63" y="33" xlink:href="#p" />
<use x="63" y="39" xlink:href="#p" />
<use x="63" y="45" xlink:href="#p" />
<use x="63" y="48" xlink:href="#p" />
<use x="63" y="72" xlink:href="#p" />
<use x="63" y="81" xlink:href="#p" />
<use x="63" y="84" xlink:href="#p" />
<use x="63" y="90" xlink:href="#p" />
<use x="66" y="6" xlink:href="#p" />
<use x="66" y="24" xlink:href="#p" />
<use x="66" y="30" xlink:href="#p" />
<use x="66" y="33" xlink:href="#p" />
<use x="66" y="57" xlink:href="#p" />
<use x="66" y="60" xlink:href="#p" />
<use x="66" y="66" xlink:href="#p" />
<use x="66" y="69" xlink:href="#p" />
<use x="66" y="72" xlink:href="#p" />
<use x="66" y="75" xlink:href="#p" />
<use x="66" y="78" xlink:href="#p" />
<use x="66" y="81" xlink:href="#p" />
<use x="66" y="87" xlink:href="#p" />
<use x="66" y="90" xlink:href="#p" />
<use x="69" y="30" xlink:href="#p" />
<use x="69" y="33" xlink:href="#p" />
<use x="69" y="39" xlink:href="#p" />
<use x="69" y="42" xlink:href="#p" />
<use x="69" y="48" xlink:href="#p" />
<use x="69" y="51" xlink:href="#p" />
<use x="69" y="54" xlink:href="#p" />
<use x="69" y="60" xlink:href="#p" />
<use x="69" y="63" xlink:href="#p" />
<use x="69" y="66" xlink:href="#p" />
<use x="69" y="78" xlink:href="#p" />
<use x="69" y="81" xlink:href="#p" />
<use x="69" y="87" xlink:href="#p" />
<use x="72" y="6" xlink:href="#p" />
<use x="72" y="9" xlink:href="#p" />
<use x="72" y="12" xlink:href="#p" />
<use x="72" y="15" xlink:href="#p" />
<use x="72" y="18" xlink:href="#p" />
<use x="72" y="21" xlink:href="#p" />
<use x="72" y="24" xlink:href="#p" />
<use x="72" y="33" xlink:href="#p" />
<use x="72" y="36" xlink:href="#p" />
<use x="72" y="45" xlink:href="#p" />
<use x="72" y="51" xlink:href="#p" />
<use x="72" y="63" xlink:href="#p" />
<use x="72" y="66" xlink:href="#p" />
<use x="72" y="72" xlink:href="#p" />
<use x="72" y="78" xlink:href="#p" />
<use x="72" y="87" xlink:href="#p" />
<use x="75" y="6" xlink:href="#p" />
<use x="75" y="24" xlink:href="#p" />
<use x="75" y="33" xlink:href="#p" />
<use x="75" y="57" xlink:href="#p" />
<use x="75" y="60" xlink:href="#p" />
<use x="75" y="66" xlink:href="#p" />
<use x="75" y="78" xlink:href="#p" />
<use x="75" y="81" xlink:href="#p" />
<use x="75" y="84" xlink:href="#p" />
<use x="75" y="87" xlink:href="#p" />
<use x="78" y="6" xlink:href="#p" />
<use x="78" y="12" xlink:href="#p" />
<use x="78" y="15" xlink:href="#p" />
<use x="78" y="18" xlink:href="#p" />
<use x="78" y="24" xlink:href="#p" />
<use x="78" y="30" xlink:href="#p" />
<use x="78" y="33" xlink:href="#p" />
<use x="78" y="51" xlink:href="#p" />
<use x="78" y="54" xlink:href="#p" />
<use x="78" y="60" xlink:href="#p" />
<use x="78" y="66" xlink:href="#p" />
<use x="78" y="69" xlink:href="#p" />
<use x="78" y="72" xlink:href="#p" />
<use x="78" y="75" xlink:href="#p" />
<use x="78" y="78" xlink:href="#p" />
<use x="78" y="81" xlink:href="#p" />
<use x="78" y="87" xlink:href="#p" />
<use x="81" y="6" xlink:href="#p" />
<use x="81" y="12" xlink:href="#p" />
<use x="81" y="15" xlink:href="#p" />
<use x="81" y="18" xlink:href="#p" />
<use x="81" y="24" xlink:href="#p" />
<use x="81" y="30" xlink:href="#p" />
<use x="81" y="39" xlink:href="#p" />
<use x="81" y="42" xlink:href="#p" />
<use x="81" y="48" xlink:href="#p" />
<use x="81" y="60" xlink:href="#p" />
<use x="81" y="66" xlink:href="#p" />
<use x="81" y="69" xlink:href="#p" />
<use x="81" y="72" xlink:href="#p" />
<use x="81" y="81" xlink:href="#p" />
<use x="81" y="84" xlink:href="#p" />
<use x="81" y="87" xlink:href="#p" />
<use x="84" y="6" xlink:href="#p" />
<use x="84" y="12" xlink:href="#p" />
<use x="84" y="15" xlink:href="#p" />
<use x="84" y="18" xlink:href="#p" />
<use x="84" y="24" xlink:href="#p" />
<use x="84" y="30" xlink:href="#p" />
<use x="84" y="36" xlink:href="#p" />
<use x="84" y="42" xlink:href="#p" />
<use x="84" y="48" xlink:href="#p" />
<use x="84" y="57" xlink:href="#p" />
<use x="84" y="60" xlink:href="#p" />
<use x="84" y="63" xlink:href="#p" />
<use x="84" y="66" xlink:href="#p" />
<use x="84" y="69" xlink:href="#p" />
<use x="84" y="78" xlink:href="#p" />
<use x="84" y="81" xlink:href="#p" />
<use x="87" y="6" xlink:href="#p" />
<use x="87" y="24" xlink:href="#p" />
<use x="87" y="36" xlink:href="#p" />
<use x="87" y="45" xlink:href="#p" />
<use x="87" y="48" xlink:href="#p" />
<use x="87" y="51" xlink:href="#p" />
<use x="87" y="54" xlink:href="#p" />
<use x="87" y="57" xlink:href="#p" />
<use x="87" y="69" xlink:href="#p" />
<use x="87" y="72" xlink:href="#p" />
<use x="87" y="75" xlink:href="#p" />
<use x="87" y="87" xlink:href="#p" />
<use x="87" y="90" xlink:href="#p" />
<use x="90" y="6" xlink:href="#p" />
<use x="90" y="9" xlink:href="#p" />
<use x="90" y="12" xlink:href="#p" />
<use x="90" y="15" xlink:href="#p" />
<use x="90" y="18" xlink:href="#p" />
<use x="90" y="21" xlink:href="#p" />
<use x="90" y="24" xlink:href="#p" />
<use x="90" y="30" xlink:href="#p" />
<use x="90" y="33" xlink:href="#p" />
<use x="90" y="39" xlink:href="#p" />
<use x="90" y="45" xlink:href="#p" />
<use x="90" y="48" xlink:href="#p" />
<use x="90" y="69" xlink:href="#p" />
<use x="90" y="75" xlink:href="#p" />
<use x="90" y="81" xlink:href="#p" />
<use x="90" y="84" xlink:href="#p" />
</g>

</svg>
