<?xml version="1.0" encoding="UTF-8" standalone="no"?>
<svg
   xmlns:dc="http://purl.org/dc/elements/1.1/"
   xmlns:cc="http://creativecommons.org/ns#"
   xmlns:rdf="http://www.w3.org/1999/02/22-rdf-syntax-ns#"
   xmlns:svg="http://www.w3.org/2000/svg"
   xmlns="http://www.w3.org/2000/svg"
   viewBox="0 0 193.14667 190.84"
   height="190.84"
   width="193.14667"
   xml:space="preserve"
   id="svg2"
   version="1.1"><metadata
     id="metadata8"><rdf:RDF><cc:Work
         rdf:about=""><dc:format>image/svg+xml</dc:format><dc:type
           rdf:resource="http://purl.org/dc/dcmitype/StillImage" /></cc:Work></rdf:RDF></metadata><defs
     id="defs6"><clipPath
       id="clipPath46"
       clipPathUnits="userSpaceOnUse"><path
         id="path44"
         d="m 0,859.586 h 1343.25 v 549.191 H 0 Z" /></clipPath></defs><g
     transform="matrix(1.3333333,0,0,-1.3333333,0,190.84)"
     id="g10"><g
       transform="scale(0.1)"
       id="g12"><path
         id="path14"
         style="fill:#283d60;fill-opacity:1;fill-rule:nonzero;stroke:none"
         d="M 1428.6,730.848 C 1428.6,346.66 1117.15,35.2109 732.961,35.2109 348.773,35.2109 37.332,346.66 37.332,730.848 c 0,384.192 311.441,695.642 695.629,695.642 384.189,0 695.639,-311.45 695.639,-695.642" /><path
         id="path16"
         style="fill:#ebeae9;fill-opacity:1;fill-rule:nonzero;stroke:none"
         d="m 729.434,1426.48 c -339.789,0 -622.5,-243.68 -683.352,-565.777 H 1412.78 C 1351.93,1182.8 1069.22,1426.48 729.434,1426.48" /><path
         id="path18"
         style="fill:#ffffff;fill-opacity:1;fill-rule:nonzero;stroke:none"
         d="m 456.902,516.676 39.133,46.875 C 523.125,541.188 551.504,527 585.902,527 c 27.09,0 43.43,10.75 43.43,28.379 v 0.859 c 0,16.766 -10.32,25.371 -60.633,38.27 -60.625,15.48 -99.754,32.246 -99.754,92.023 v 0.86 c 0,54.609 43.856,90.722 105.348,90.722 43.859,0 81.27,-13.761 111.801,-38.273 l -34.399,-49.871 c -26.66,18.484 -52.89,29.668 -78.261,29.668 -25.368,0 -38.7,-11.614 -38.7,-26.231 v -0.859 c 0,-19.777 12.899,-26.231 64.93,-39.563 61.059,-15.906 95.457,-37.839 95.457,-90.293 v -0.867 c 0,-59.765 -45.578,-93.301 -110.508,-93.301 -45.582,0 -91.586,15.907 -127.711,48.153" /><path
         id="path20"
         style="fill:#ffffff;fill-opacity:1;fill-rule:nonzero;stroke:none"
         d="m 904.098,598.805 -39.981,97.609 -39.992,-97.609 z m -69.66,177.16 h 61.066 L 1024.5,472.82 h -69.23 l -27.52,67.508 H 800.473 l -27.52,-67.508 h -67.504 l 128.989,303.145" /><path
         id="path22"
         style="fill:#f6b435;fill-opacity:1;fill-rule:nonzero;stroke:none"
         d="M 965.156,39.9609 H 507.898 L 261.059,216.039 121.195,392.121 H 1344.73 L 1212.84,216.039 965.156,39.9609" /><path
         id="path24"
         style="fill:none;stroke:#e9e9e9;stroke-width:40;stroke-linecap:butt;stroke-linejoin:miter;stroke-miterlimit:10;stroke-dasharray:none;stroke-opacity:1"
         d="M 1428.6,715.641 C 1428.6,331.449 1117.15,20 732.961,20 348.773,20 37.332,331.449 37.332,715.641 c 0,384.189 311.441,695.639 695.629,695.639 384.189,0 695.639,-311.45 695.639,-695.639 z" /><path
         id="path26"
         style="fill:#283d60;fill-opacity:1;fill-rule:nonzero;stroke:none"
         d="m 458.949,187.922 19.426,23.258 c 13.449,-11.102 27.539,-18.149 44.617,-18.149 13.449,0 21.559,5.348 21.559,14.098 v 0.43 c 0,8.32 -5.121,12.582 -30.098,18.992 -30.101,7.687 -49.527,16.019 -49.527,45.679 v 0.43 c 0,27.11 21.773,45.039 52.301,45.039 21.773,0 40.347,-6.82 55.503,-18.988 l -17.082,-24.77 c -13.23,9.18 -26.253,14.731 -38.847,14.731 -12.598,0 -19.215,-5.762 -19.215,-13.024 v -0.429 c 0,-9.809 6.406,-13.02 32.234,-19.637 30.317,-7.902 47.391,-18.793 47.391,-44.82 v -0.43 c 0,-29.684 -22.625,-46.332 -54.863,-46.332 -22.625,0 -45.469,7.898 -63.399,23.922" /><path
         id="path28"
         style="fill:#283d60;fill-opacity:1;fill-rule:nonzero;stroke:none"
         d="m 688.441,228.691 -19.851,48.457 -19.852,-48.457 z m -34.578,87.95 h 30.313 l 64.043,-150.5 h -34.371 l -13.664,33.519 h -63.188 l -13.66,-33.519 H 589.82 l 64.043,150.5" /><path
         id="path30"
         style="fill:#283d60;fill-opacity:1;fill-rule:nonzero;stroke:none"
         d="m 771.285,315.57 h 113.778 v -29.89 h -80.899 v -31.809 h 71.301 V 223.988 H 804.164 V 166.141 H 771.285 V 315.57" /><path
         id="path32"
         style="fill:#283d60;fill-opacity:1;fill-rule:nonzero;stroke:none"
         d="m 980.074,232.309 c -1.926,14.523 -10.461,24.339 -24.121,24.339 -13.449,0 -22.207,-9.597 -24.765,-24.339 z m -80.695,-9.598 v 0.418 c 0,32.672 23.273,59.562 56.574,59.562 38.211,0 55.707,-29.671 55.707,-62.121 0,-2.558 -0.21,-5.539 -0.43,-8.531 h -79.613 c 3.203,-14.738 13.446,-22.41 27.957,-22.41 10.891,0 18.789,3.402 27.754,11.73 L 1005.9,184.93 c -10.67,-13.239 -26.041,-21.348 -46.744,-21.348 -34.375,0 -59.777,24.117 -59.777,59.129" /><g
         transform="scale(10)"
         id="g34"><text
           id="text38"
           style="font-variant:normal;font-weight:bold;font-size:10.79370022px;font-family:Gotham;-inkscape-font-specification:Gotham-Bold;writing-mode:lr-tb;fill:#283d60;fill-opacity:1;fill-rule:nonzero;stroke:none"
           transform="matrix(1,0,0,-1,101.738,21.8352)"><tspan
             id="tspan36"
             y="0"
             x="0">®</tspan></text>
</g><g
         id="g40"><g
           clip-path="url(#clipPath46)"
           id="g42"><path
             id="path48"
             style="fill:#283d60;fill-opacity:1;fill-rule:nonzero;stroke:none"
             d="M 1091.09,1232.68 292.895,573.527 380.066,522.926 423.797,486.484 1328.35,789.297 1091.09,1232.68" /><path
             id="path50"
             style="fill:#283d60;fill-opacity:1;fill-rule:nonzero;stroke:none"
             d="m 935.777,1178 -690.14,-566.891 15,-29.468 688.73,568.289 -13.59,28.07" /><path
             id="path52"
             style="fill:#283d60;fill-opacity:1;fill-rule:nonzero;stroke:none"
             d="m 912.988,1221.83 -711.871,-581.635 24.5,-22.457 700.961,576.022 -13.59,28.07" /><path
             id="path54"
             style="fill:#283d60;fill-opacity:1;fill-rule:nonzero;stroke:none"
             d="M 732.09,1149.93 156.988,679.719 171.977,650.258 745.68,1121.86 732.09,1149.93" /><path
             id="path56"
             style="fill:#283d60;fill-opacity:1;fill-rule:nonzero;stroke:none"
             d="m 709.301,1193.76 -584.61,-477.213 24.5,-22.461 573.7,471.604 -13.59,28.07" /><path
             id="path58"
             style="fill:#283d60;fill-opacity:1;fill-rule:nonzero;stroke:none"
             d="M 549.887,1134.94 80.3242,753.258 l 23.9028,-21.449 459.25,375.061 -13.59,28.07" /><path
             id="path60"
             style="fill:#283d60;fill-opacity:1;fill-rule:nonzero;stroke:none"
             d="M 527.098,1178.77 50.9961,792.324 69.2383,765.516 540.688,1150.7 l -13.59,28.07" /></g></g></g></g></svg>